<svg version="1.1" xmlns="http://www.w3.org/2000/svg" xmlns:xlink="http://www.w3.org/1999/xlink" width="48" height="48"><defs><linearGradient x1="12.76674" y1="13.33359" x2="69.78579" y2="69.21894" gradientUnits="userSpaceOnUse" id="color-1"><stop offset="0.2" stop-color="#000000" stop-opacity="0.19"></stop><stop offset="1" stop-color="#000000" stop-opacity="0"></stop></linearGradient><filter id="dropshadow-base"><feColorMatrix type="matrix" values="0 0 0 0 0  0 0 0 0 0  0 0 0 0 0  0 0 0 .8 0"></feColorMatrix> <feOffset dx="0" dy="1"></feOffset> <feGaussianBlur stdDeviation="1"></feGaussianBlur> <feComposite in="SourceGraphic"></feComposite></filter><filter id="dropshadow-banner" x="-10%" y="-10%" width="120%" height="130%"><feColorMatrix type="matrix" values="0 0 0 0 0  0 0 0 0 0  0 0 0 0 0  0 0 0 .4 0"></feColorMatrix> <feOffset dx="0" dy="1"></feOffset> <feGaussianBlur stdDeviation="0.5"></feGaussianBlur> <feComposite in="SourceGraphic"></feComposite></filter></defs><g fill="none" fill-rule="nonzero" stroke="none" stroke-width="none" stroke-linecap="butt" stroke-linejoin="miter" stroke-miterlimit="10" stroke-dasharray="" stroke-dashoffset="0" font-family="none" font-weight="none" font-size="none" text-anchor="none" style="mix-blend-mode: normal"><path d="M7,43c-1.10457,0 -2,-0.89543 -2,-2v-34c0,-1.10457 0.89543,-2 2,-2h34c1.10457,0 2,0.89543 2,2v34c0,1.10457 -0.89543,2 -2,2z" id="base 1 5" fill="#457cb0" stroke-width="1"></path><path d="M14.14128,20.40415c-1.83272,-1.83272 -1.83272,-4.81087 0,-6.64358l9.50009,9.50009c0.69881,-0.69814 1.29617,-1.29469 1.72526,-1.72282c-0.83411,-1.79159 -0.2467,-4.32332 1.62125,-6.19127c2.2439,-2.24977 5.46289,-2.67858 7.18987,-0.95748l8.82225,8.82225v17.78867c0,1.10457 -0.89543,2 -2,2h-17.10947l-9.99596,-9.99596c0,0 3.26883,-3.26883 6.42102,-6.41971l-1.2577,-1.2577z" fill="url(#color-1)" stroke-width="1"></path><path d="M19.05788,25.32662l3.32473,-3.32473l-8.24133,-8.24133c-1.83271,1.83271 -1.83271,4.81087 0,6.64358zM27.029,23.19433c1.79159,0.83999 4.32332,0.24671 6.19128,-1.62125c2.24977,-2.24977 2.67858,-5.46289 0.95747,-7.184c-1.72698,-1.7211 -4.94597,-1.2923 -7.18987,0.95747c-1.86796,1.86796 -2.45536,4.39968 -1.62125,6.19128c-2.61396,2.60809 -11.47207,11.4662 -11.47207,11.4662l1.66236,1.66236l8.08273,-8.08273l8.08273,8.08273l1.66236,-1.66236l-8.08273,-8.08273z" fill="none" stroke-width="0"></path><path d="M14.14128,20.40415c-1.83271,-1.83271 -1.83271,-4.81087 0,-6.64358l8.24133,8.24133l-3.32473,3.32473zM25.30203,24.92131l8.08273,8.08273l-1.66236,1.66236l-8.08273,-8.08273l-8.08273,8.08273l-1.66236,-1.66236c0,0 8.85811,-8.85811 11.47207,-11.4662c-0.83412,-1.79159 -0.24671,-4.32332 1.62125,-6.19128c2.2439,-2.24977 5.46289,-2.67858 7.18987,-0.95747c1.7211,1.7211 1.2923,4.93422 -0.95747,7.184c-1.86796,1.86796 -4.39968,2.46124 -6.19128,1.62125z" fill="#ffffff" stroke-width="0"></path><path d="M2,24c0,-12.15026 9.84974,-22 22,-22c12.15026,0 22,9.84974 22,22c0,12.15026 -9.84974,22 -22,22c-12.15026,0 -22,-9.84974 -22,-22z" id="base 1 1 1" fill="none" stroke-width="1"></path><g fill="#000000" stroke-width="1" font-family="Roboto, sans-serif" font-weight="400" font-size="14" text-anchor="start"></g><path d="M13,36v-12h30v12z" id="banner 1" fill="#404041" stroke-width="1" filter="url(#dropshadow-banner)"></path><text x="28" y="33" fill="#ffffff" stroke-width="1" font-family="sans-serif" font-weight="bold" font-size="8" text-anchor="middle">FREE</text><rect x="2" y="2" width="44" height="22" fill="none" stroke-width="1"></rect><path d="M2,24v-22h44v22z" fill="none" stroke-width="1"></path><path d="M2,24v-22h44v22z" fill="none" stroke-width="1"></path><path d="M2,24v-22h44v22z" fill="none" stroke-width="1"></path><path d="M2,24v-22h44v22z" fill="none" stroke-width="1"></path></g></svg>